<svg width="28" height="28" xmlns="http://www.w3.org/2000/svg">
 <defs>
  <clipPath id="clip0_406_543">
   <rect id="svg_1" fill="white" height="28" width="27.1683"/>
  </clipPath>
 </defs>
 <g>
  <title>background</title>
  <rect fill="none" id="canvas_background" height="402" width="582" y="-1" x="-1"/>
 </g>
 <g>
  <title>Layer 1</title>
  <g id="svg_2" clip-path="url(#clip0_406_543)">
   <path id="svg_3" fill="#7dff15" d="m9.08714,21.7328c0,0.1094 -0.12598,0.1969 -0.28482,0.1969c-0.18076,0.0164 -0.30674,-0.0711 -0.30674,-0.1969c0,-0.1094 0.12598,-0.1969 0.28483,-0.1969c0.16432,-0.0164 0.30673,0.0711 0.30673,0.1969zm-1.70349,-0.2461c-0.03834,0.1094 0.07121,0.2352 0.23553,0.268c0.14241,0.0547 0.30674,0 0.3396,-0.1094c0.03287,-0.1094 -0.0712,-0.2351 -0.23553,-0.2844c-0.14241,-0.0382 -0.30126,0.0164 -0.3396,0.1258zm2.42105,-0.0929c-0.15885,0.0382 -0.2684,0.1421 -0.25197,0.2679c0.01643,0.1094 0.15885,0.1805 0.32317,0.1422c0.1588,-0.0383 0.2684,-0.1422 0.252,-0.2516c-0.0165,-0.1039 -0.16436,-0.175 -0.3232,-0.1585zm3.6042,-20.9563c-7.59729,0 -13.4089,5.75859 -13.4089,13.3437c0,6.0649 3.82328,11.2547 9.28433,13.0813c0.70112,0.1258 0.94757,-0.3063 0.94757,-0.6617c0,-0.3391 -0.0164,-2.2094 -0.0164,-3.3578c0,0 -3.83423,0.8203 -4.63942,-1.6297c0,0 -0.62444,-1.5914 -1.52274,-2.0016c0,0 -1.25435,-0.8586 0.08764,-0.8422c0,0 1.36389,0.1094 2.11431,1.411c1.19956,2.1109 3.2098,1.5039 3.99311,1.1429c0.126,-0.875 0.482,-1.482 0.8764,-1.8429c-3.06194,-0.3391 -6.15124,-0.7821 -6.15124,-6.043c0,-1.5039 0.41628,-2.2586 1.29268,-3.22109c-0.14241,-0.35547 -0.608,-1.8211 0.14242,-3.71328c1.14479,-0.35547 3.77944,1.47656 3.77944,1.47656c1.0955,-0.30625 2.2732,-0.46485 3.4399,-0.46485c1.1667,0 2.3443,0.1586 3.4398,0.46485c0,0 2.6347,-1.8375 3.7795,-1.47656c0.7504,1.89765 0.2848,3.35781 0.1424,3.71328c0.8764,0.96799 1.4132,1.72269 1.4132,3.22109c0,5.2773 -3.2262,5.6984 -6.2881,6.043c0.5039,0.432 0.9311,1.2523 0.9311,2.5375c0,1.8429 -0.0164,4.1234 -0.0164,4.5718c0,0.3555 0.252,0.7875 0.9476,0.6618c5.4775,-1.8157 9.1912,-7.0055 9.1912,-13.0704c0,-7.58511 -6.1622,-13.3437 -13.7594,-13.3437zm-8.08479,18.8617c-0.0712,0.0547 -0.05477,0.1805 0.03835,0.2844c0.08764,0.0875 0.21362,0.1258 0.28483,0.0547c0.0712,-0.0547 0.05477,-0.1805 -0.03835,-0.2844c-0.08764,-0.0875 -0.21362,-0.1258 -0.28483,-0.0547zm-0.59156,-0.443c-0.03835,0.0711 0.01643,0.1586 0.12598,0.2133c0.08764,0.0547 0.19719,0.0383 0.23553,-0.0383c0.03834,-0.071 -0.01643,-0.1585 -0.12598,-0.2132c-0.10955,-0.0328 -0.19719,-0.0164 -0.23553,0.0382zm1.7747,1.9469c-0.08764,0.0711 -0.05477,0.2352 0.07121,0.3391c0.12598,0.1258 0.28483,0.1422 0.35603,0.0547c0.07121,-0.0711 0.03835,-0.2352 -0.0712,-0.3391c-0.12051,-0.1258 -0.28483,-0.1422 -0.35604,-0.0547zm-0.62443,-0.8039c-0.08764,0.0547 -0.08764,0.1969 0,0.3227c0.08764,0.1258 0.23553,0.1804 0.30674,0.1258c0.08764,-0.0711 0.08764,-0.2133 0,-0.3391c-0.07669,-0.1258 -0.2191,-0.1805 -0.30674,-0.1094z"/>
  </g>
 </g>
</svg>