<svg width="25" height="30" xmlns="http://www.w3.org/2000/svg">
 <defs>
  <clipPath id="clip0_406_541">
   <rect id="svg_1" fill="white" height="29.3088" width="24.396"/>
  </clipPath>
 </defs>
 <g>
  <title>background</title>
  <rect fill="none" id="canvas_background" height="402" width="582" y="-1" x="-1"/>
 </g>
 <g>
  <title>Layer 1</title>
  <g id="svg_2" clip-path="url(#clip0_406_541)">
   <path id="svg_3" fill="#7dff15" d="m12.2036,8.07137c-3.46334,0 -6.2569,2.93663 -6.2569,6.57733c0,3.6407 2.79356,6.5773 6.2569,6.5773c3.4634,0 6.2569,-2.9366 6.2569,-6.5773c0,-3.6407 -2.7935,-6.57733 -6.2569,-6.57733zm0,10.85343c-2.23809,0 -4.06779,-1.9177 -4.06779,-4.2761c0,-2.3585 1.82425,-4.2761 4.06779,-4.2761c2.2436,0 4.0678,1.9176 4.0678,4.2761c0,2.3584 -1.8297,4.2761 -4.0678,4.2761zm7.9723,-11.12247c0,0.85293 -0.6535,1.53413 -1.4594,1.53413c-0.8114,0 -1.4594,-0.68693 -1.4594,-1.53413c0,-0.84721 0.6534,-1.53414 1.4594,-1.53414c0.8059,0 1.4594,0.68693 1.4594,1.53414zm4.144,1.55703c-0.0925,-2.05506 -0.5391,-3.87541 -1.9712,-5.3752c-1.4268,-1.49979 -3.1585,-1.96918 -5.1134,-2.07222c-2.0149,-0.12022 -8.05395,-0.12022 -10.0688,0c-1.9495,0.09731 -3.68118,0.56671 -5.11336,2.0665c-1.432171,1.49979 -1.873259,3.32014 -1.971279,5.37519c-0.114356,2.11807 -0.114356,8.46637 0,10.58437c0.092574,2.0551 0.539108,3.8754 1.971279,5.3752c1.43218,1.4998 3.15841,1.9692 5.11336,2.0722c2.01485,0.1202 8.0539,0.1202 10.0688,0c1.9549,-0.0973 3.6866,-0.5667 5.1134,-2.0722c1.4267,-1.4998 1.8732,-3.3201 1.9712,-5.3752c0.1144,-2.118 0.1144,-8.4606 0,-10.57864zm-2.6029,12.85124c-0.4248,1.122 -1.2471,1.9864 -2.3198,2.4386c-1.6065,0.6697 -5.4183,0.5152 -7.1936,0.5152c-1.7752,0 -5.59254,0.1488 -7.19353,-0.5152c-1.06733,-0.4465 -1.8896,-1.3109 -2.3198,-2.4386c-0.63713,-1.6887 -0.4901,-5.6958 -0.4901,-7.5619c0,-1.8662 -0.14158,-5.87895 0.4901,-7.56192c0.42475,-1.12198 1.24703,-1.98636 2.3198,-2.43859c1.60643,-0.66975 5.41833,-0.51519 7.19353,-0.51519c1.7753,0 5.5926,-0.14884 7.1936,0.51519c1.0673,0.4465 1.8896,1.31088 2.3198,2.43859c0.6371,1.68869 0.4901,5.69572 0.4901,7.56192c0,1.8661 0.147,5.8789 -0.4901,7.5619z"/>
  </g>
 </g>
</svg>