<svg width="25" height="28" xmlns="http://www.w3.org/2000/svg">
 <defs>
  <clipPath id="clip0_406_545">
   <rect id="svg_1" fill="white" height="28" width="24.6733"/>
  </clipPath>
 </defs>
 <g>
  <title>background</title>
  <rect fill="none" id="canvas_background" height="402" width="582" y="-1" x="-1"/>
 </g>
 <g>
  <title>Layer 1</title>
  <g id="svg_2" clip-path="url(#clip0_406_545)">
   <path id="svg_3" fill="#7dff15" d="m5.52285,24.5004l-5.1153,0l0,-16.357l5.1153,0l0,16.357zm-2.56041,-18.58825c-1.6357,0 -2.96244,-1.34531 -2.96244,-2.96953c0,-0.78017 0.31211,-1.52839 0.86768,-2.08006c0.55557,-0.55166 1.30908,-0.86158 2.09476,-0.86158c0.78569,0 1.5392,0.30992 2.09477,0.86158c0.55556,0.55167 0.86768,1.29989 0.86768,2.08006c0,1.62422 -1.32729,2.96953 -2.96245,2.96953zm21.70536,18.58825l-5.1043,0l0,-7.9625c0,-1.8976 -0.0386,-4.3312 -2.6596,-4.3312c-2.6595,0 -3.067,2.0617 -3.067,4.1945l0,8.0992l-5.10983,0l0,-16.357l4.90603,0l0,2.2312l0.0716,0c0.6829,-1.28511 2.3511,-2.64136 4.8399,-2.64136c5.177,0 6.1287,3.38516 6.1287,7.78206l0,8.9851l-0.0055,0z"/>
  </g>
 </g>
</svg>