<svg width="32" height="28" xmlns="http://www.w3.org/2000/svg">

 <g>
  <title>background</title>
  <rect fill="none" id="canvas_background" height="402" width="582" y="-1" x="-1"/>
 </g>
 <g>
  <title>Layer 1</title>
  <path id="svg_1" fill="#7dff15" d="m29.7687,6.43672c0.2021,-0.6836 0,-1.18672 -0.9722,-1.18672l-3.2172,0c-0.8193,0 -1.1962,0.43203 -1.3983,0.91328c0,0 -1.6387,3.99762 -3.9546,6.58982c-0.7483,0.7492 -1.0924,0.9899 -1.5021,0.9899c-0.2021,0 -0.5134,-0.2407 -0.5134,-0.9242l0,-6.38208c0,-0.82031 -0.2294,-1.18672 -0.9067,-1.18672l-5.058,0c-0.5134,0 -0.8193,0.38281 -0.8193,0.73828c0,0.77656 1.158,0.95703 1.2782,3.14453l0,4.74689c0,1.0391 -0.1858,1.2305 -0.5954,1.2305c-1.0924,0 -3.74703,-4.0141 -5.32012,-8.60786c-0.31681,-0.8914 -0.62815,-1.25234 -1.45293,-1.25234l-3.21719,0c-0.91763,0 -1.10335,0.43203 -1.10335,0.91328c0,0.85313 1.09243,5.09142 5.08524,10.69142c2.66005,3.8226 6.40705,5.8953 9.81545,5.8953c2.0483,0 2.2995,-0.4594 2.2995,-1.2523c0,-3.6532 -0.1857,-3.9977 0.8412,-3.9977c0.4752,0 1.2945,0.2406 3.2063,2.0836c2.1848,2.1875 2.5453,3.1664 3.7688,3.1664l3.2172,0c0.9177,0 1.3819,-0.4594 1.1143,-1.3672c-0.6118,-1.9086 -4.7466,-5.8351 -4.9323,-6.0976c-0.4752,-0.6125 -0.3387,-0.886 0,-1.4329c0.0055,-0.0054 3.9327,-5.5398 4.3369,-7.41558z"/>
 </g>
</svg>